HIERARCHY
ROOT Hips
{
	OFFSET 0.000000 121.760803 0.000000
	CHANNELS 6 Xposition Yposition Zposition Xrotation Yrotation Zrotation 
	JOINT Spine
	{
		OFFSET 0.072000 7.257294 -0.789700
		CHANNELS 3 Xrotation Yrotation Zrotation
		JOINT Spine1
		{
			OFFSET 0.000000 12.508769 -0.658067
			CHANNELS 3 Xrotation Yrotation Zrotation
			JOINT Spine1_split
			{
				OFFSET 0.000000 12.508769 -0.658067
				CHANNELS 3 Xrotation Yrotation Zrotation
				JOINT Spine2
				{
					OFFSET 0.000000 12.508769 -0.658067
					CHANNELS 3 Xrotation Yrotation Zrotation
					JOINT Neck
					{
						OFFSET 0.000000 14.033295 7.520400
						CHANNELS 3 Xrotation Yrotation Zrotation
						JOINT Head
						{
							OFFSET 0.000000 8.198502 5.703100
							CHANNELS 3 Xrotation Yrotation Zrotation
							JOINT HeadTop_End
							{
								OFFSET 0.000000 17.760803 13.332701
								CHANNELS 3 Xrotation Yrotation Zrotation
								End Site
								{
									OFFSET 0.000000 0.000000 0.000000
								}
							}
						}
					}
					JOINT LeftShoulder
					{
						OFFSET 6.292450 5.785301 -0.669000
						CHANNELS 3 Xrotation Yrotation Zrotation
						JOINT LeftShoulder_split
						{
							OFFSET 6.292450 5.785301 -0.669000
							CHANNELS 3 Xrotation Yrotation Zrotation
							JOINT LeftArm
							{
								OFFSET 13.907140 -6.093903 1.965100
								CHANNELS 3 Xrotation Yrotation Zrotation
								JOINT LeftForeArm
								{
									OFFSET 34.140198 0.000000 0.000000
									CHANNELS 3 Xrotation Yrotation Zrotation
									JOINT LeftHand
									{
										OFFSET 40.960209 0.000000 0.000000
										CHANNELS 3 Xrotation Yrotation Zrotation
										JOINT LeftHandThumb1
										{
											OFFSET 10.006996 -7.170425 9.573125
											CHANNELS 3 Xrotation Yrotation Zrotation
											JOINT LeftHandThumb2
											{
												OFFSET 1.835007 -1.059448 1.059443
												CHANNELS 3 Xrotation Yrotation Zrotation
												JOINT LeftHandThumb3
												{
													OFFSET 2.112267 -1.219513 1.219518
													CHANNELS 3 Xrotation Yrotation Zrotation
													JOINT LeftHandThumb4
													{
														OFFSET 4.843811 -2.796570 2.796576
														CHANNELS 3 Xrotation Yrotation Zrotation
														End Site
														{
															OFFSET 0.000000 0.000000 0.000000
														}
													}
												}
											}
										}
										JOINT LeftHandIndex1
										{
											OFFSET 18.389847 -0.922348 4.596882
											CHANNELS 3 Xrotation Yrotation Zrotation
											JOINT LeftHandIndex2
											{
												OFFSET 4.711273 0.000000 0.000000
												CHANNELS 3 Xrotation Yrotation Zrotation
												JOINT LeftHandIndex3
												{
													OFFSET 2.886131 0.000000 0.000000
													CHANNELS 3 Xrotation Yrotation Zrotation
													JOINT LeftHandIndex4
													{
														OFFSET 6.145912 0.000000 0.000000
														CHANNELS 3 Xrotation Yrotation Zrotation
														End Site
														{
															OFFSET 0.000000 0.000000 0.000000
														}
													}
												}
											}
										}
										JOINT LeftHandMiddle1
										{
											OFFSET 18.013008 0.000000 0.000000
											CHANNELS 3 Xrotation Yrotation Zrotation
											JOINT LeftHandMiddle2
											{
												OFFSET 4.946693 0.000000 0.000000
												CHANNELS 3 Xrotation Yrotation Zrotation
												JOINT LeftHandMiddle3
												{
													OFFSET 3.342232 0.000000 0.000000
													CHANNELS 3 Xrotation Yrotation Zrotation
													JOINT LeftHandMiddle4
													{
														OFFSET 4.461754 0.000000 0.000000
														CHANNELS 3 Xrotation Yrotation Zrotation
														End Site
														{
															OFFSET 0.000000 0.000000 0.000000
														}
													}
												}
											}
										}
										JOINT LeftHandRing1
										{
											OFFSET 15.849892 -0.102921 -4.126150
											CHANNELS 3 Xrotation Yrotation Zrotation
											JOINT LeftHandRing2
											{
												OFFSET 3.527054 0.000000 0.000000
												CHANNELS 3 Xrotation Yrotation Zrotation
												JOINT LeftHandRing3
												{
													OFFSET 2.961098 0.000000 0.000000
													CHANNELS 3 Xrotation Yrotation Zrotation
													JOINT LeftHandRing4
													{
														OFFSET 4.927200 0.000000 0.000000
														CHANNELS 3 Xrotation Yrotation Zrotation
														End Site
														{
															OFFSET 0.000000 0.000000 0.000000
														}
													}
												}
											}
										}
										JOINT LeftHandPinky1
										{
											OFFSET 12.791824 -0.832031 -6.799156
											CHANNELS 3 Xrotation Yrotation Zrotation
											JOINT LeftHandPinky2
											{
												OFFSET 3.327133 0.000000 0.000000
												CHANNELS 3 Xrotation Yrotation Zrotation
												JOINT LeftHandPinky3
												{
													OFFSET 3.014900 0.000000 0.000000
													CHANNELS 3 Xrotation Yrotation Zrotation
													JOINT LeftHandPinky4
													{
														OFFSET 5.847786 0.000000 0.000000
														CHANNELS 3 Xrotation Yrotation Zrotation
														End Site
														{
															OFFSET 0.000000 0.000000 0.000000
														}
													}
												}
											}
										}
									}
								}
							}
						}
					}
					JOINT RightShoulder
					{
						OFFSET -6.292450 5.785301 -0.669000
						CHANNELS 3 Xrotation Yrotation Zrotation
						JOINT RightShoulder_split
						{
							OFFSET -6.292450 5.785301 -0.669000
							CHANNELS 3 Xrotation Yrotation Zrotation
							JOINT RightArm
							{
								OFFSET -13.907140 -6.093903 1.965100
								CHANNELS 3 Xrotation Yrotation Zrotation
								JOINT RightForeArm
								{
									OFFSET -34.140198 0.000000 0.000000
									CHANNELS 3 Xrotation Yrotation Zrotation
									JOINT RightHand
									{
										OFFSET -40.960209 0.000000 0.000000
										CHANNELS 3 Xrotation Yrotation Zrotation
										JOINT RightHandThumb1
										{
											OFFSET -10.007050 -7.170456 9.573117
											CHANNELS 3 Xrotation Yrotation Zrotation
											JOINT RightHandThumb2
											{
												OFFSET -1.835007 -1.059448 1.059443
												CHANNELS 3 Xrotation Yrotation Zrotation
												JOINT RightHandThumb3
												{
													OFFSET -2.112267 -1.219513 1.219518
													CHANNELS 3 Xrotation Yrotation Zrotation
													JOINT RightHandThumb4
													{
														OFFSET -4.843834 -2.796585 2.796590
														CHANNELS 3 Xrotation Yrotation Zrotation
														End Site
														{
															OFFSET 0.000000 0.000000 0.000000
														}
													}
												}
											}
										}
										JOINT RightHandIndex1
										{
											OFFSET -18.389870 -0.922424 4.596786
											CHANNELS 3 Xrotation Yrotation Zrotation
											JOINT RightHandIndex2
											{
												OFFSET -4.711273 0.000000 0.000000
												CHANNELS 3 Xrotation Yrotation Zrotation
												JOINT RightHandIndex3
												{
													OFFSET -2.886131 0.000000 0.000000
													CHANNELS 3 Xrotation Yrotation Zrotation
													JOINT RightHandIndex4
													{
														OFFSET -6.145920 0.000000 0.000000
														CHANNELS 3 Xrotation Yrotation Zrotation
														End Site
														{
															OFFSET 0.000000 0.000000 0.000000
														}
													}
												}
											}
										}
										JOINT RightHandMiddle1
										{
											OFFSET -18.013008 0.000000 0.000000
											CHANNELS 3 Xrotation Yrotation Zrotation
											JOINT RightHandMiddle2
											{
												OFFSET -4.946693 0.000000 0.000000
												CHANNELS 3 Xrotation Yrotation Zrotation
												JOINT RightHandMiddle3
												{
													OFFSET -3.342232 0.000000 0.000000
													CHANNELS 3 Xrotation Yrotation Zrotation
													JOINT RightHandMiddle4
													{
														OFFSET -4.461754 0.000000 0.000000
														CHANNELS 3 Xrotation Yrotation Zrotation
														End Site
														{
															OFFSET 0.000000 0.000000 0.000000
														}
													}
												}
											}
										}
										JOINT RightHandRing1
										{
											OFFSET -15.849876 -0.102936 -4.126237
											CHANNELS 3 Xrotation Yrotation Zrotation
											JOINT RightHandRing2
											{
												OFFSET -3.527054 0.000000 0.000000
												CHANNELS 3 Xrotation Yrotation Zrotation
												JOINT RightHandRing3
												{
													OFFSET -2.961098 0.000000 0.000000
													CHANNELS 3 Xrotation Yrotation Zrotation
													JOINT RightHandRing4
													{
														OFFSET -4.927200 0.000000 0.000000
														CHANNELS 3 Xrotation Yrotation Zrotation
														End Site
														{
															OFFSET 0.000000 0.000000 0.000000
														}
													}
												}
											}
										}
										JOINT RightHandPinky1
										{
											OFFSET -12.791786 -0.832077 -6.799222
											CHANNELS 3 Xrotation Yrotation Zrotation
											JOINT RightHandPinky2
											{
												OFFSET -3.327133 0.000000 0.000000
												CHANNELS 3 Xrotation Yrotation Zrotation
												JOINT RightHandPinky3
												{
													OFFSET -3.014900 0.000000 0.000000
													CHANNELS 3 Xrotation Yrotation Zrotation
													JOINT RightHandPinky4
													{
														OFFSET -5.847786 0.000000 0.000000
														CHANNELS 3 Xrotation Yrotation Zrotation
														End Site
														{
															OFFSET 0.000000 0.000000 0.000000
														}
													}
												}
											}
										}
									}
								}
							}
						}
					}
				}
			}
		}
	}
	JOINT LeftUpLeg
	{
		OFFSET 13.026900 -6.336304 -1.092800
		CHANNELS 3 Xrotation Yrotation Zrotation
		JOINT LeftLeg
		{
			OFFSET 0.524474 -46.096886 9.782700
			CHANNELS 3 Xrotation Yrotation Zrotation
			JOINT LeftFoot
			{
				OFFSET -0.524474 -53.427422 -12.948200
				CHANNELS 3 Xrotation Yrotation Zrotation
				JOINT LeftToeBase
				{
					OFFSET 0.192200 -14.009700 16.364100
					CHANNELS 3 Xrotation Yrotation Zrotation
					JOINT LeftToe_End
					{
						OFFSET -1.784700 -0.561700 9.474800
						CHANNELS 3 Xrotation Yrotation Zrotation
						End Site
						{
							OFFSET 0.000000 0.000000 0.000000
						}
					}
				}
			}
		}
	}
	JOINT RightUpLeg
	{
		OFFSET -12.883000 -6.336304 -1.092800
		CHANNELS 3 Xrotation Yrotation Zrotation
		JOINT RightLeg
		{
			OFFSET -0.524587 -46.096825 9.782800
			CHANNELS 3 Xrotation Yrotation Zrotation
			JOINT RightFoot
			{
				OFFSET 0.524587 -53.427383 -12.948300
				CHANNELS 3 Xrotation Yrotation Zrotation
				JOINT RightToeBase
				{
					OFFSET -0.192200 -14.009700 16.364100
					CHANNELS 3 Xrotation Yrotation Zrotation
					JOINT RightToe_End
					{
						OFFSET 1.784700 -0.561700 9.474800
						CHANNELS 3 Xrotation Yrotation Zrotation
						End Site
						{
							OFFSET 0.000000 0.000000 0.000000
						}
					}
				}
			}
		}
	}
}
MOTION
Frames: 5
Frame Time: 0.016667
134.747253 97.875305 250.688232 -100.710477 -66.162424 -184.109060 11.518034 1.879689 3.310549 4.854285 11.245299 9.491960 0.000000 0.000000 0.000000 -0.264520 4.650245 6.859569 17.054953 5.940626 9.977808 17.218031 33.848123 -18.256826 0.000000 0.000000 -0.000002 0.094781 -6.199210 -0.123044 0.000000 0.000000 0.000000 9.665276 -8.508372 -0.913035 0.000011 -16.045861 0.000009 35.770445 4.134786 2.795900 -21.849357 -26.533922 3.214723 14.707539 16.467040 -15.962739 -7.335823 -0.421721 13.147353 0.000000 0.000001 -0.000003 -1.323885 -11.050869 -6.554813 0.019606 0.479407 -4.683533 0.036127 0.650303 -6.359159 -0.000002 0.000001 -0.000002 -0.648681 1.485326 -20.430344 0.000903 0.102835 -1.003614 0.153310 1.332803 -13.122661 -0.000000 0.000000 -0.000000 5.314363 12.518961 -31.340805 0.021989 0.507678 -4.960394 0.032838 -0.620143 6.063177 0.000001 0.000001 0.000000 2.322001 20.828228 -37.538091 0.232409 1.635311 -16.176166 0.084486 0.992439 -9.732242 0.000003 0.000000 0.000001 0.702722 0.170120 17.086866 0.000000 0.000000 0.000000 -42.474351 9.627232 15.642586 0.000007 21.324551 0.000007 54.171060 3.808803 -28.436352 -17.608774 2.987705 1.533011 -5.026867 -26.669274 -12.857319 -13.642562 -18.946477 -16.527779 -0.000001 0.000001 0.000001 0.237645 -2.716276 11.266514 0.242392 -1.484327 18.547365 0.212850 -1.393258 17.371374 -0.000000 0.000000 -0.000000 2.290395 -8.097833 24.945372 0.422940 -1.940987 24.583188 0.670465 -2.409308 31.097609 0.000001 0.000000 -0.000000 5.299360 -10.955996 36.062852 0.774635 -2.573984 33.493755 0.902473 -2.757250 36.241909 -0.000000 0.000001 0.000001 6.881477 -15.240324 43.779102 0.835648 -2.663789 34.829047 1.387692 -3.318399 45.378254 -0.000000 -0.000001 -0.000001 -64.970255 6.250631 38.829431 91.553966 -7.525823 -11.157798 18.514541 -10.284445 -11.820103 0.669951 -0.000008 0.000010 0.000002 0.000001 -0.000001 -60.729391 18.521294 -50.236048 58.846000 3.673506 -2.432098 7.690725 2.031835 20.777847 8.592766 -0.000007 0.000002 -0.000000 -0.000002 0.000000 
138.475876 93.406265 255.897125 -100.007684 -65.417120 -185.006793 11.614505 1.786499 2.999693 5.544258 11.383315 9.197807 0.000000 0.000000 0.000000 -0.042803 4.627742 6.563418 15.374956 5.803016 9.269357 18.722401 32.861427 -18.303637 0.000001 0.000001 0.000001 0.193429 -6.244324 -0.490215 0.000000 0.000000 0.000000 8.939516 -6.671614 0.394172 0.000001 -17.704883 0.000013 40.311776 8.263364 4.360196 -22.662699 -26.776602 3.864299 11.870360 19.263013 -11.470781 -8.295396 -0.172130 12.732430 -0.000002 0.000001 0.000001 0.129996 -11.645893 -0.445218 0.021087 0.497167 -4.857433 0.031999 0.612114 -5.984348 0.000001 -0.000001 0.000003 -0.475359 0.547753 -12.557678 0.000930 0.104593 -1.020731 0.142484 1.285517 -12.649019 -0.000000 0.000000 -0.000001 3.960308 12.243260 -23.933512 0.023674 0.526791 -5.147698 0.042401 -0.704340 6.890102 0.000000 0.000001 0.000001 1.720364 20.343997 -29.864910 0.251795 1.700727 -16.842480 0.075889 0.940852 -9.221715 0.000000 -0.000002 0.000000 0.757834 0.219493 18.065762 0.000000 0.000000 0.000000 -42.841091 9.112755 16.864203 0.000004 24.910779 0.000011 54.071374 4.622347 -27.029941 -17.424506 3.155065 1.313349 -4.888509 -26.946215 -12.345321 -13.541679 -19.793876 -16.673219 0.000000 0.000002 0.000000 0.256210 -2.735443 12.032159 0.266328 -1.553842 19.450475 0.230194 -1.447487 18.070584 -0.000001 -0.000001 -0.000002 2.288263 -8.009694 25.439344 0.480179 -2.061439 26.221889 0.731939 -2.508319 32.530876 -0.000000 -0.000000 0.000000 5.282044 -10.807332 36.655655 0.848283 -2.681836 35.099591 0.999113 -2.884281 38.205237 -0.000001 -0.000003 0.000001 6.682599 -15.123036 43.637863 0.926472 -2.789644 36.737716 1.438086 -3.367298 46.242382 -0.000000 0.000001 0.000003 -65.185106 6.123544 37.518509 92.174407 -7.318952 -10.865381 18.003206 -10.111614 -11.098073 0.269110 -0.000032 0.000009 0.000004 0.000000 0.000000 -61.293769 17.541796 -49.773832 55.785007 3.158182 -2.969606 10.956655 2.799070 22.673950 7.909327 -0.000004 0.000004 0.000000 -0.000001 0.000000 
142.152954 88.353851 261.343140 -98.946819 -65.829513 -185.754234 11.718828 1.631049 3.120258 5.957485 11.339477 9.012859 0.000000 0.000000 0.000000 0.073768 4.191040 6.295747 13.799715 5.635502 8.568019 19.962049 31.780699 -18.252607 -0.000003 0.000001 0.000001 0.268089 -6.237658 -0.973497 0.000000 0.000000 0.000000 7.893500 -4.110883 1.992692 -0.000008 -21.678780 -0.000008 45.854209 11.612324 6.910715 -24.357788 -27.217471 5.367374 4.744762 23.727329 -0.421147 -10.448896 0.439133 11.817500 0.000001 -0.000002 0.000002 2.172454 -12.057194 7.954019 0.022638 0.515076 -5.032873 0.037604 0.663460 -6.488379 -0.000001 0.000001 -0.000000 0.020044 -0.647344 -0.983341 0.000968 0.106393 -1.038267 0.156801 1.347709 -13.272149 0.000000 0.000002 0.000002 1.956666 11.211960 -12.644208 0.025446 0.546079 -5.336644 0.027759 -0.570273 5.573898 -0.000002 0.000004 0.000004 0.969396 19.372264 -18.258800 0.272117 1.766398 -17.513906 0.088843 1.017483 -9.980424 0.000002 -0.000000 -0.000001 0.787627 0.240694 18.556509 0.000000 0.000000 0.000000 -42.487916 7.719438 18.634657 0.000006 29.131283 -0.000000 53.659588 5.152977 -25.209950 -17.240900 3.321289 1.091994 -4.748503 -27.220679 -11.832500 -13.444471 -20.639776 -16.817365 0.000000 0.000001 0.000001 0.274461 -2.754148 12.796004 0.291285 -1.622795 20.351554 0.248140 -1.501376 18.768199 0.000003 0.000001 0.000000 2.284464 -7.922241 25.932008 0.540676 -2.179884 27.857046 0.795761 -2.605587 33.961060 -0.000001 -0.000000 -0.000000 5.261778 -10.660311 37.246814 0.924726 -2.787322 36.701981 1.099803 -3.007662 40.164446 0.000001 0.000001 -0.000002 6.484871 -15.005215 43.497588 1.021212 -2.912118 38.642314 1.489091 -3.415326 47.104598 0.000000 -0.000001 -0.000002 -65.203192 5.584969 34.808218 92.899595 -6.886166 -10.040317 17.252575 -8.792463 -10.405597 0.402789 -0.000010 0.000004 0.000002 0.000000 0.000000 -61.203679 15.754897 -50.323140 52.357160 2.695262 -3.575330 13.816079 3.870816 24.370513 7.955829 -0.000009 -0.000006 -0.000000 -0.000000 -0.000001 
146.150299 82.881531 266.886780 -98.843820 -65.603366 -188.007350 11.843673 1.386932 3.467667 6.189664 11.236921 8.879471 0.000000 0.000000 0.000000 0.150943 3.491579 6.062964 12.506458 5.434271 7.875172 20.393695 30.654907 -18.008844 -0.000002 -0.000001 -0.000003 0.299029 -6.173944 -1.669665 0.000000 0.000000 0.000000 6.360276 2.416630 3.605605 -0.000009 -28.398082 -0.000009 50.134511 13.536604 11.094392 -26.147694 -27.717044 6.953361 -3.260725 25.444456 12.144134 -12.718408 1.160020 10.880833 -0.000002 -0.000002 -0.000001 4.001848 -11.998680 15.702199 0.024257 0.533130 -5.209779 0.051287 0.774321 -7.578618 -0.000000 -0.000000 0.000000 0.680424 -1.545811 10.206248 0.000995 0.108238 -1.056267 0.190120 1.481806 -14.621324 -0.000000 0.000002 0.000002 0.308134 9.635005 -1.589517 0.027296 0.565511 -5.527091 0.007193 -0.290502 2.835936 -0.000000 0.000001 0.000005 0.405215 18.245688 -6.886050 0.293347 1.832261 -18.189900 0.119491 1.178441 -11.579913 0.000000 0.000003 0.000001 1.035438 0.349699 19.024063 0.000000 0.000000 0.000000 -41.972943 5.617776 20.313734 -0.000004 34.549576 0.000001 53.342200 5.393184 -23.168608 -17.059697 3.485442 0.870126 -4.607786 -27.490770 -11.322440 -13.352643 -21.478411 -16.959404 0.000003 -0.000000 -0.000000 0.292215 -2.772308 13.552783 0.317115 -1.690735 21.244354 0.266565 -1.554536 19.459385 0.000001 0.000001 0.000002 2.278994 -7.836075 26.419940 0.603957 -2.295547 29.477321 0.861350 -2.700303 35.378191 -0.000001 0.000000 -0.000000 5.238750 -10.515968 37.832227 1.003367 -2.889691 38.289798 1.203698 -3.126445 42.105972 0.000003 -0.000000 -0.000004 6.289585 -14.887709 43.359212 1.119040 -3.030274 40.529704 1.540338 -3.462165 47.958908 0.000001 0.000000 0.000002 -65.727696 3.936381 32.726991 93.867611 -6.840320 -9.198435 17.635601 -8.382789 -9.972039 0.779525 -0.000001 -0.000009 0.000005 -0.000000 -0.000001 -63.242798 15.304769 -49.244762 51.653732 3.150533 -5.312692 15.631171 4.701705 26.542071 5.824825 0.000018 -0.000003 0.000000 -0.000001 -0.000000 
150.731003 75.667389 274.039490 -100.159342 -63.082179 -190.889908 11.985944 1.472352 4.190616 6.471730 11.084026 8.784404 0.000000 0.000000 0.000000 0.445382 2.770592 5.891452 11.640453 5.195614 7.192118 19.687682 29.472789 -17.527316 0.000001 0.000000 -0.000001 0.150613 -6.043545 -3.147675 0.000000 0.000000 0.000000 4.885611 7.041730 4.864253 0.000004 -28.737051 0.000004 55.366026 8.608572 21.047349 -27.252137 -28.070308 7.869010 -7.747930 24.981205 19.567683 -14.055669 1.621571 10.343887 -0.000002 0.000001 -0.000000 4.940740 -11.838897 19.866392 0.025942 0.551321 -5.388061 0.071685 0.914616 -8.962356 -0.000000 -0.000000 -0.000000 1.128293 -1.995162 16.883693 0.001033 0.110141 -1.074826 0.236692 1.650011 -16.325829 -0.000001 -0.000001 0.000001 -0.470639 8.309050 5.266659 0.029223 0.585074 -5.718966 0.000323 0.061735 -0.602471 0.000002 0.000003 -0.000000 0.225046 17.522171 0.159889 0.315474 1.898282 -18.869955 0.164403 1.379537 -13.591599 -0.000001 0.000003 0.000000 0.910771 0.309283 19.874519 0.000000 0.000000 0.000000 -41.661149 4.331575 22.138660 0.000009 40.042872 -0.000006 52.657979 5.447025 -20.620375 -16.882431 3.646507 0.648879 -4.467507 -27.754592 -10.818804 -13.266258 -22.303843 -17.098409 0.000000 0.000003 0.000001 0.309430 -2.789764 14.297161 0.343539 -1.757152 22.122568 0.285319 -1.606609 20.139303 -0.000001 -0.000001 -0.000002 2.272076 -7.751808 26.899795 0.669351 -2.407467 31.071282 0.928162 -2.791909 36.772338 -0.000000 -0.000000 -0.000000 5.213281 -10.375276 38.407783 1.083456 -2.988218 39.851910 1.309775 -3.239790 44.016102 0.000002 0.000001 -0.000000 6.098188 -14.771341 43.223715 1.219042 -3.143313 42.386569 1.591406 -3.507449 48.799311 -0.000002 -0.000003 -0.000001 -66.014461 3.872291 29.251409 93.022682 -3.750506 -8.116545 18.347720 -7.453727 -10.524849 0.467836 0.000005 -0.000023 0.000002 -0.000000 0.000001 -65.817342 13.833759 -47.136573 45.241670 2.176024 -5.861542 21.476741 7.674754 26.073556 2.668260 -0.000010 0.000005 0.000001 0.000001 0.000000 
